HIERARCHY
ROOT Hips
{
 OFFSET 0.000000 0.000000 0.000000
 CHANNELS 6 Xposition Yposition Zposition Yrotation Xrotation Zrotation
 JOINT Chest
 {
  OFFSET 0.000000 9.585900 0.002600
  CHANNELS 3 Yrotation Xrotation Zrotation
  JOINT Chest2
  {
   OFFSET 0.000000 9.601200 -0.005300
   CHANNELS 3 Yrotation Xrotation Zrotation
   JOINT Chest3
   {
    OFFSET 0.000000 9.561800 0.000000
    CHANNELS 3 Yrotation Xrotation Zrotation
    JOINT Chest4
    {
     OFFSET 0.000000 9.552100 0.000000
     CHANNELS 3 Yrotation Xrotation Zrotation
     JOINT Neck
     {
      OFFSET 0.000000 14.453000 0.000000
      CHANNELS 3 Yrotation Xrotation Zrotation
      JOINT Head
      {
       OFFSET 0.000000 8.936500 -0.011300
       CHANNELS 3 Yrotation Xrotation Zrotation
       End Site
       {
        OFFSET 0.000000 17.073600 -0.006000
       }
      }
     }
     JOINT RightCollar
     {
      OFFSET -2.921100 9.558500 0.000000
      CHANNELS 3 Yrotation Xrotation Zrotation
      JOINT RightShoulder
      {
       OFFSET -13.519700 0.000000 0.000000
       CHANNELS 3 Yrotation Xrotation Zrotation
       JOINT RightElbow
       {
        OFFSET 0.000000 -29.696600 0.000000
        CHANNELS 3 Yrotation Xrotation Zrotation
        JOINT RightWrist
        {
         OFFSET 0.000000 -24.004700 0.000000
         CHANNELS 3 Yrotation Xrotation Zrotation
         End Site
         {
          OFFSET 0.000000 -17.728500 0.000000
         }
        }
       }
      }
     }
     JOINT LeftCollar
     {
      OFFSET 2.921100 9.558500 0.000000
      CHANNELS 3 Yrotation Xrotation Zrotation
      JOINT LeftShoulder
      {
       OFFSET 13.519700 0.000000 0.000000
       CHANNELS 3 Yrotation Xrotation Zrotation
       JOINT LeftElbow
       {
        OFFSET 0.000000 -29.696600 0.000000
        CHANNELS 3 Yrotation Xrotation Zrotation
        JOINT LeftWrist
        {
         OFFSET 0.000000 -24.004700 0.000000
         CHANNELS 3 Yrotation Xrotation Zrotation
         End Site
         {
          OFFSET 0.000000 -17.728500 0.000000
         }
        }
       }
      }
     }
    }
   }
  }
 }
 JOINT RightHip
 {
  OFFSET -7.771700 -0.012900 -0.001300
  CHANNELS 3 Yrotation Xrotation Zrotation
  JOINT RightKnee
  {
   OFFSET 0.000000 -40.869800 0.001200
   CHANNELS 3 Yrotation Xrotation Zrotation
   JOINT RightAnkle
   {
    OFFSET 0.000000 -39.717900 0.002100
    CHANNELS 3 Yrotation Xrotation Zrotation
    JOINT RightToe
    {
     OFFSET 0.000000 -4.965400 11.033500
     CHANNELS 3 Yrotation Xrotation Zrotation
     End Site
     {
      OFFSET 0.000000 -1.423100 5.872300
     }
    }
   }
  }
 }
 JOINT LeftHip
 {
  OFFSET 7.771700 -0.012900 -0.001300
  CHANNELS 3 Yrotation Xrotation Zrotation
  JOINT LeftKnee
  {
   OFFSET 0.000000 -40.869800 0.001200
   CHANNELS 3 Yrotation Xrotation Zrotation
   JOINT LeftAnkle
   {
    OFFSET 0.000000 -39.717900 0.002100
    CHANNELS 3 Yrotation Xrotation Zrotation
    JOINT LeftToe
    {
     OFFSET 0.000000 -4.965400 11.033500
     CHANNELS 3 Yrotation Xrotation Zrotation
     End Site
     {
      OFFSET 0.000000 -1.423100 5.872300
     }
    }
   }
  }
 }
}
MOTION
Frames: 11
Frame Time: 0.008333
0.000000 85.388000 0.000000 0.000000 -5.767877 0.000000 0.000000 11.653817 0.000000 0.000000 -5.885947 0.000000 0.000000 -0.000000 0.000000 0.000000 -0.000000 0.000000 0.000000 12.528835 0.000000 0.000000 0.711642 0.000000 0.000000 -0.000000 0.000000 0.000000 0.000000 -90.000000 0.000000 -2.309062 0.000000 0.000000 2.309062 0.000000 0.000000 -0.000000 0.000000 0.000000 -0.000000 90.000000 0.000000 -2.309062 0.000000 0.000000 2.309062 0.000000 0.000000 8.520406 0.000000 0.000000 1.905762 0.000000 -0.000000 -4.658285 0.000000 0.000000 -0.000000 0.000000 0.000000 8.520406 0.000000 0.000000 1.905762 0.000000 -0.000000 -4.658285 0.000000 0.000000 -0.000000 0.000000
-21.293756 61.053323 28.952668 165.701886 -14.538399 2.381878 -0.438245 11.773369 -0.641213 -0.012244 0.828805 -0.012379 -0.020820 1.422488 -0.018161 -0.169987 10.750361 -0.151719 2.330432 18.545191 -0.166442 2.501865 -6.181858 -0.732975 3.281439 3.372335 -3.007175 -5.556678 -10.251977 -4.860693 -66.698268 -69.203105 85.164496 -2.401904 2.226593 -19.720365 -5.438534 0.099576 -5.028949 17.001512 -3.973317 3.396151 42.096977 -82.230978 -62.544384 -7.139487 5.564819 2.579101 -6.270129 -54.678825 -1.286150 -19.397210 70.759446 -13.695430 1.661008 -4.639734 -4.767610 0.066270 -0.340412 0.031817 9.737224 -52.425847 -3.354566 30.774375 70.098791 28.824007 -19.202310 -13.711273 1.451716 0.231236 0.330866 0.011142
-21.289470 61.052765 28.954958 165.709981 -14.536007 2.349077 -0.439392 11.772343 -0.607880 -0.012425 0.830815 -0.010613 -0.023473 1.430055 -0.011386 -0.173767 10.746619 -0.159265 2.336798 18.554660 -0.157472 2.507019 -6.172887 -0.725230 3.289886 3.379849 -3.003984 -5.544408 -10.256863 -4.857877 -66.695334 -69.199501 85.154261 -2.393141 2.222922 -19.714438 -5.428502 0.105131 -5.027441 17.003027 -3.965296 3.389702 42.043581 -82.230559 -62.504646 -7.140260 5.577884 2.585133 -6.317000 -54.676925 -1.234935 -19.404190 70.758192 -13.698430 1.666782 -4.630385 -4.763442 0.062128 -0.352022 0.026049 9.699993 -52.433985 -3.315390 30.795329 70.098326 28.834188 -19.038574 -13.730349 1.430960 0.299016 0.366923 0.047327
-21.288225 61.052048 28.957153 165.727255 -14.529116 2.330052 -0.454931 11.770032 -0.586796 -0.013175 0.831257 -0.010706 -0.018877 1.431643 -0.010923 -0.188758 10.748515 -0.161425 2.351325 18.563140 -0.152302 2.521989 -6.138824 -0.705914 3.301879 3.384805 -3.000565 -5.534673 -10.251366 -4.849594 -66.694606 -69.212193 85.159781 -2.389241 2.217825 -19.711210 -5.409188 0.108994 -5.031277 17.005141 -3.961552 3.386753 41.978555 -82.230371 -62.455481 -7.142649 5.575041 2.589389 -6.353288 -54.682477 -1.208946 -19.376286 70.762901 -13.672255 1.659716 -4.629398 -4.757209 0.058593 -0.356359 0.021651 9.669100 -52.443555 -3.299174 30.829205 70.088669 28.850473 -18.932918 -13.737441 1.423650 0.341687 0.393597 0.074891
-21.296721 61.051320 28.958136 165.748969 -14.513596 2.366500 -0.480212 11.759500 -0.620679 -0.013599 0.831733 -0.010517 -0.016574 1.433091 -0.013148 -0.197811 10.750668 -0.157724 2.357520 18.571122 -0.151761 2.518929 -6.143163 -0.708349 3.308367 3.390686 -3.002904 -5.519956 -10.258819 -4.851526 -66.679648 -69.203236 85.146464 -2.377548 2.224664 -19.680845 -5.400712 0.122516 -5.030736 17.004552 -3.961925 3.381198 41.976090 -82.231590 -62.461295 -7.144602 5.575122 2.586457 -6.306115 -54.707430 -1.288412 -19.368034 70.772602 -13.660477 1.638999 -4.643744 -4.759452 0.074428 -0.347941 0.028353 9.719580 -52.451906 -3.367854 30.768194 70.089569 28.770195 -18.992346 -13.708284 1.471652 0.274207 0.397090 0.067419
-21.306814 61.051481 28.955264 165.744405 -14.515297 2.423043 -0.473733 11.777231 -0.664570 -0.021139 0.822655 -0.016030 -0.015888 1.434846 -0.012023 -0.199001 10.751410 -0.156963 2.353384 18.570716 -0.151952 2.517085 -6.138710 -0.705293 3.322931 3.405294 -2.997844 -5.528679 -10.275915 -4.855865 -66.692470 -69.207349 85.151187 -2.378758 2.233715 -19.655185 -5.403743 0.121682 -5.030653 17.005747 -3.953442 3.382627 41.927466 -82.232438 -62.417509 -7.147010 5.573745 2.581753 -6.210099 -54.715027 -1.393917 -19.360197 70.781243 -13.648583 1.604121 -4.665091 -4.766681 0.103207 -0.333420 0.040611 9.805089 -52.439731 -3.445194 30.698291 70.094861 28.702099 -19.208055 -13.674191 1.527300 0.143112 0.390879 0.042314
-21.312701 61.051204 28.954101 165.747265 -14.510160 2.449840 -0.475074 11.779788 -0.686225 -0.019695 0.824465 -0.014798 -0.017654 1.433425 -0.012946 -0.196743 10.752341 -0.154766 2.346539 18.570691 -0.152746 2.518550 -6.119893 -0.696052 3.318387 3.401396 -3.000589 -5.531171 -10.278727 -4.857236 -66.677839 -69.201252 85.156597 -2.372784 2.236172 -19.650261 -5.408496 0.118878 -5.033469 17.002143 -3.942173 3.389159 41.893459 -82.232012 -62.384380 -7.146518 5.560335 2.579570 -6.174404 -54.726852 -1.442121 -19.339134 70.791002 -13.627626 1.583181 -4.675481 -4.774003 0.119655 -0.328978 0.048378 9.849592 -52.437968 -3.484789 30.649258 70.096968 28.646841 -19.323770 -13.657956 1.560950 0.078410 0.394680 0.032107
-21.316727 61.051137 28.952165 165.750231 -14.509161 2.466524 -0.475422 11.783272 -0.699237 -0.013399 0.834527 -0.008288 -0.023957 1.426328 -0.017236 -0.200783 10.753446 -0.154283 2.349873 18.579438 -0.147835 2.532448 -6.083168 -0.679118 3.321283 3.398249 -3.002562 -5.524341 -10.274271 -4.851153 -66.655311 -69.205380 85.168914 -2.367741 2.232438 -19.656787 -5.409591 0.112122 -5.037615 16.992839 -3.916593 3.412755 41.988249 -82.231611 -62.471932 -7.143995 5.547112 2.578584 -6.157454 -54.732826 -1.471055 -19.329481 70.800179 -13.618917 1.576091 -4.682223 -4.785790 0.126774 -0.328085 0.058885 9.877231 -52.436222 -3.493649 30.580349 70.107107 28.574061 -19.464157 -13.640800 1.580991 0.085432 0.396152 0.037032
-21.317253 61.050733 28.951563 165.754525 -14.502021 2.460588 -0.475799 11.777300 -0.692509 -0.012980 0.836714 -0.006506 -0.021518 1.430699 -0.013393 -0.197981 10.755703 -0.153691 2.359260 18.605081 -0.129912 2.519508 -6.104918 -0.691911 3.325158 3.399232 -2.996731 -5.507587 -10.269219 -4.855747 -66.686079 -69.212913 85.192793 -2.366289 2.237014 -19.638935 -5.416279 0.114836 -5.042779 16.985271 -3.922572 3.415871 41.868454 -82.229145 -62.348900 -7.148916 5.574116 2.576325 -6.177023 -54.740853 -1.456800 -19.326552 70.804843 -13.618378 1.577765 -4.681493 -4.789925 0.128071 -0.332350 0.061146 9.868980 -52.443789 -3.484880 30.573338 70.108134 28.557725 -19.447327 -13.640718 1.581193 0.082199 0.407295 0.041022
-21.309919 61.049870 28.953094 165.766115 -14.490590 2.404348 -0.473383 11.773682 -0.630808 -0.014203 0.832942 -0.009755 -0.016313 1.434990 -0.009796 -0.205651 10.757508 -0.150005 2.365409 18.613576 -0.128786 2.520134 -6.093566 -0.685154 3.355508 3.404901 -2.989761 -5.523194 -10.280552 -4.868955 -66.688103 -69.210297 85.204821 -2.363301 2.237752 -19.641434 -5.415744 0.126157 -5.051034 16.979511 -3.935901 3.414051 41.845371 -82.229099 -62.322699 -7.151644 5.588403 2.581068 -6.268431 -54.745145 -1.359378 -19.335319 70.804864 -13.624579 1.592843 -4.665859 -4.790563 0.115975 -0.350892 0.055302 9.793003 -52.463560 -3.411801 30.626286 70.110946 28.571419 -19.180508 -13.670314 1.562069 0.199618 0.430440 0.071386
-21.302848 61.049779 28.951335 165.782330 -14.495605 2.353584 -0.470995 11.783381 -0.574618 -0.007075 0.842157 -0.003382 -0.024706 1.430658 -0.015981 -0.203159 10.760967 -0.146594 2.358770 18.615257 -0.128263 2.521845 -6.084614 -0.679365 3.348151 3.394665 -2.995810 -5.521852 -10.281952 -4.870572 -66.684995 -69.204523 85.220598 -2.361192 2.239591 -19.647690 -5.424984 0.121635 -5.055341 16.959725 -3.928147 3.429953 41.962256 -82.224140 -62.423022 -7.156330 5.602321 2.586802 -6.368745 -54.734135 -1.271474 -19.330968 70.815041 -13.612103 1.596292 -4.660109 -4.808295 0.118947 -0.368235 0.056256 9.741921 -52.462546 -3.346545 30.615718 70.115797 28.545969 -19.031781 -13.698811 1.545646 0.301132 0.456201 0.106477
